<svg xmlns="http://www.w3.org/2000/svg" xmlns:xlink="http://www.w3.org/1999/xlink"    viewBox="0 0  49 59 " width="73.5" height="88.5"><g width="180" top="0" left="0" height="100" version="0.0.1" zoom="8.000000000000004" reference="C" description=" " modelname="DC Voltage" symbolname="CCCS"></g><g points="9,4 9,14 " class="polyline" name="pin"><polyline points="9,4 9,14 " style="stroke: rgb(255, 0, 0); stroke-width: 1px;"></polyline><rect width="6" height="6" class="pin" x="6" y="1" style="stroke: rgb(0, 255, 0); fill: none; stroke-width: 1px;"></rect><text r="0" x="7" y="16" transform="rotate(90 7 16)" style="font-size: 12px; font-family: &quot;Times New Roman&quot;; display: none;">p1</text><text r="0" x="9" y="4" transform="rotate(0 9 4)" style="font-size: 12px; font-family: &quot;Times New Roman&quot;; display: none;">+</text></g><g points="9,54 9,44 " class="polyline" name="pin"><polyline points="9,54 9,44 " style="stroke: rgb(255, 0, 0); stroke-width: 1px;"></polyline><rect width="6" height="6" class="pin" x="6" y="51" style="stroke: rgb(0, 255, 0); fill: none; stroke-width: 1px;"></rect><text r="0" x="7" y="42" transform="rotate(90 7 42)" style="font-size: 12px; font-family: &quot;Times New Roman&quot;; display: none;">n1</text><text r="0" x="9" y="54" transform="rotate(0 9 54)" style="font-size: 12px; font-family: &quot;Times New Roman&quot;; display: none;">-</text></g><ellipse class="draggable" name="ellipse" cx="34" cy="29" rx="10" ry="10" style="stroke: rgb(0, 0, 255); fill: rgb(255, 255, 127); stroke-width: 1px;"></ellipse><g points="34,4 34,14 " class="polyline" name="pin"><polyline points="34,4 34,14 " style="stroke: rgb(255, 0, 0); stroke-width: 1px;"></polyline><rect width="6" height="6" class="pin" x="31" y="1" style="stroke: rgb(0, 255, 0); fill: none; stroke-width: 1px;"></rect><text r="0" x="32" y="16" transform="rotate(90 32 16)" style="font-size: 12px; font-family: &quot;Times New Roman&quot;; display: none;">p2</text><text r="0" x="34" y="4" transform="rotate(0 34 4)" style="font-size: 12px; font-family: &quot;Times New Roman&quot;; display: none;">+</text></g><g points="34,54 34,44 " class="polyline" name="pin"><polyline points="34,54 34,44 " style="stroke: rgb(255, 0, 0); stroke-width: 1px;"></polyline><rect width="6" height="6" class="pin" x="31" y="51" style="stroke: rgb(0, 255, 0); fill: none; stroke-width: 1px;"></rect><text r="0" x="32" y="42" transform="rotate(90 32 42)" style="font-size: 12px; font-family: &quot;Times New Roman&quot;; display: none;">n2</text><text r="0" x="34" y="54" transform="rotate(0 34 54)" style="font-size: 12px; font-family: &quot;Times New Roman&quot;; display: none;">-</text></g><polyline points="9,14 9,44 " class="polyline" name="polyline" style="stroke: rgb(0, 0, 255); fill: none; stroke-width: 1px;"></polyline><polyline points="34,14 34,19 " class="polyline" name="polyline" style="stroke: rgb(0, 0, 255); fill: none; stroke-width: 1px;"></polyline><polyline points="34,39 34,46 " class="polyline" name="polyline" style="stroke: rgb(0, 0, 255); fill: none; stroke-width: 1px;"></polyline><polyline points="34,19 34,39 " class="polyline" name="polyline" style="stroke: rgb(0, 0, 255); fill: none; stroke-width: 1px;"></polyline><polyline points="4,24 9,29 " class="polyline" name="polyline" style="stroke: rgb(0, 0, 255); fill: none; stroke-width: 1px;"></polyline><polyline points="14,24 9,29 " class="polyline" name="polyline" style="stroke: rgb(0, 0, 255); fill: none; stroke-width: 1px;"></polyline><polyline points="34,33 30,28 " class="polyline" name="polyline" style="stroke: rgb(0, 0, 255); fill: none; stroke-width: 1px;"></polyline><polyline points="38,28 34,33 " class="polyline" name="polyline" style="stroke: rgb(0, 0, 255); fill: none; stroke-width: 1px;"></polyline></svg>