<svg xmlns="http://www.w3.org/2000/svg" xmlns:xlink="http://www.w3.org/1999/xlink"    viewBox="0 0  45.234375 63.015625 " width="67.8515625" height="94.5234375"><g width="350" top="324" left="287" height="350" version="0.0.1" zoom="8.999999999999998" reference="L" description="It is used to calculate the power and is a resistive element" symbolname="Load"></g><g points="4,8.015625 14,8.015625 " class="polyline" name="pin" type="simple"><polyline points="4,8 14,8 " style="stroke: rgb(255, 0, 0); stroke-width: 1px;"></polyline><rect width="6" height="6" class="pin" x="1" y="5" style="stroke: rgb(0, 255, 0); fill: none; stroke-width: 1px;"></rect><text r="0" x="16" y="10" transform="rotate(0 16 10)" style="font-size: 12px; font-family: &quot;Times New Roman&quot;; display: none;">p</text><text r="0" x="4" y="8" transform="rotate(0 4 8)" style="font-size: 12px; font-family: &quot;Times New Roman&quot;; display: none;">+</text><ellipse cx="12.5" cy="8" rx="1.5" ry="1.5" style="stroke: rgb(255, 0, 0); fill: rgb(255, 0, 0); stroke-width: 1px; display: none;"></ellipse><polygon points="14,6.5 14,9.5 15.5,8 " style="stroke: rgb(255, 0, 0); fill: rgb(255, 0, 0); stroke-width: 1px; display: none;"></polygon></g><polyline points="19,18.015625 19,8.015625 13,8.015625 " class="polyline" name="polyline" style="stroke: rgb(0, 0, 255); fill: none; stroke-width: 1px;"></polyline><g points="19,58.015625 19,48.015625 " class="polyline" name="pin" type="simple"><polyline points="19,58 19,48 " style="stroke: rgb(255, 0, 0); stroke-width: 1px;"></polyline><rect width="6" height="6" class="pin" x="16" y="55" style="stroke: rgb(0, 255, 0); fill: none; stroke-width: 1px;"></rect><text r="0" x="17" y="46" transform="rotate(90 17 46)" style="font-size: 12px; font-family: &quot;Times New Roman&quot;; display: none; fill: rgb(0, 0, 0);">n</text><text r="0" x="19" y="58" transform="rotate(0 19 58)" style="font-size: 12px; font-family: &quot;Times New Roman&quot;; display: none;">-</text><ellipse cx="19" cy="49.5" rx="1.5" ry="1.5" style="stroke: rgb(255, 0, 0); fill: rgb(255, 0, 0); stroke-width: 1px; display: none;"></ellipse><polygon points="17.5,48 20.5,48 19,46.5 " style="stroke: rgb(255, 0, 0); fill: rgb(255, 0, 0); stroke-width: 1px; display: none;"></polygon></g><rect class="draggable" x="14" y="18.015625" name="rect" width="10" height="30" style="stroke: rgb(0, 0, 255); fill: rgb(255, 255, 127); stroke-width: 1px;"></rect><text class="draggable" name="text" x="24" y="15.015625" r="0" rtemp="0" transform="rotate(0 24  15.015625)" style="fill: rgb(255, 0, 0); font-weight: normal; font-style: normal; font-size: 10px; font-family: &quot;Times New Roman&quot;;" rid="display">I</text><text class="draggable" name="text" x="33" y="38.015625" r="0" rtemp="0" transform="rotate(0 33  38.015625)" style="fill: rgb(255, 0, 0); font-weight: normal; font-style: normal; font-size: 10px; font-family: &quot;Times New Roman&quot;;" rid="display">V</text><polygon points="19,13.015625 16,10.015625 19,16.015625 22,10.015625 " class="draggable" name="polygon" style="stroke: rgb(0, 0, 255); fill: rgb(0, 0, 255); stroke-width: 1px;"></polygon><polyline points="29,44.015625 29,26.015625 " class="polyline" name="polyline" style="stroke: rgb(0, 0, 255); fill: none; stroke-width: 1px;"></polyline><polygon points="29,22.015625 32,28.015625 29,26.015625 26,28.015625 " class="draggable" name="polygon" style="stroke: rgb(0, 0, 255); fill: rgb(0, 0, 255); stroke-width: 1px;"></polygon></svg>