<svg xmlns="http://www.w3.org/2000/svg" xmlns:xlink="http://www.w3.org/1999/xlink"    viewBox="0 0  54 23 " width="81" height="34.5"><g width="150" height="150" std="false" zoom="12.599999999999987" left="0" top="392" modelname="Resistor" reference="R" description=" Resistor" symbolname=" Resistor"></g><g points="4,12 14,12 " class="polyline" name="pin" width="150" height="150" zoom="9" left="0" top="418" modelname="Resistor" reference="R" description=" Resistor"><polyline points="4,12 14,12 " style="stroke: rgb(255, 0, 0); stroke-width: 1px;"></polyline><rect width="6" height="6" class="pin" x="1" y="9" style="stroke: rgb(0, 255, 0); fill: none; stroke-width: 1px;"></rect><text r="0" x="16" y="14" transform="rotate(0 16 14)" style="font-size: 12px; font-family: &quot;Times New Roman&quot;; display: none;">pin1</text></g><g points="49,12 39,12 " class="polyline" name="pin"><polyline points="49,12 39,12 " style="stroke: rgb(255, 0, 0); stroke-width: 1px;"></polyline><rect width="6" height="6" class="pin" x="46" y="9" style="stroke: rgb(0, 255, 0); fill: none; stroke-width: 1px;"></rect><text r="0" x="39" y="14" transform="rotate(0 39 14)" style="font-size: 12px; font-family: &quot;Times New Roman&quot;; display: none;">pin2</text></g><polyline points="9,12 14,12 17,4 21,18 27,4 31,18 37,4 39,12 45,12 " class="polyline" name="polyline" style="stroke: rgb(0, 0, 255); fill: none; stroke-width: 1px;"></polyline></svg>