<svg xmlns="http://www.w3.org/2000/svg" xmlns:xlink="http://www.w3.org/1999/xlink"    viewBox="0 0  40 44 " width="60" height="66"><g width="180" top="202" left="44" height="100" version="0.0.1" zoom="13.999999999999982" reference="S" description="{&quot;webPage&quot;:&quot;https://dspice.sourceforge.io/elements/Basic/Switch.html&quot;,&quot;info&quot;:&quot;&quot;}" modelname="DC Voltage" symbolname="Current controlled switch" type="Switch [SW]" model="standard"></g><g points="4,14 12,14 " class="polyline" name="pin" type="simple"><polyline points="4,14 12,14 " style="stroke: rgb(255, 0, 0); stroke-width: 1px;"></polyline><rect width="6" height="6" class="pin" x="1" y="11" style="stroke: rgb(0, 255, 0); fill: none; stroke-width: 1px;"></rect><text r="0" x="14" y="16" transform="rotate(0 14 16)" style="font-size: 7px; font-family: Arial; display: none; fill: rgb(0, 0, 0);">pc</text><text r="0" x="4" y="14" transform="rotate(0 4 14)" style="font-size: 7px; font-family: Arial; display: none; fill: rgb(0, 0, 0);"> </text><ellipse cx="10.5" cy="14" rx="1.5" ry="1.5" style="stroke: rgb(255, 0, 0); fill: rgb(255, 0, 0); stroke-width: 1px; display: none;"></ellipse><polygon points="12,12.5 12,15.5 13.5,14 " style="stroke: rgb(255, 0, 0); fill: rgb(255, 0, 0); stroke-width: 1px; display: none;"></polygon></g><g points="4,29 12,29 " class="polyline" name="pin" type="simple"><polyline points="4,29 12,29 " style="stroke: rgb(255, 0, 0); stroke-width: 1px;"></polyline><rect width="6" height="6" class="pin" x="1" y="26" style="stroke: rgb(0, 255, 0); fill: none; stroke-width: 1px;"></rect><text r="0" x="14" y="31" transform="rotate(0 14 31)" style="font-size: 7px; font-family: Arial; display: none; fill: rgb(0, 0, 0);">nc</text><text r="0" x="4" y="29" transform="rotate(0 4 29)" style="font-size: 7px; font-family: Arial; display: none; fill: rgb(0, 0, 0);"> </text><ellipse cx="10.5" cy="29" rx="1.5" ry="1.5" style="stroke: rgb(255, 0, 0); fill: rgb(255, 0, 0); stroke-width: 1px; display: none;"></ellipse><polygon points="12,27.5 12,30.5 13.5,29 " style="stroke: rgb(255, 0, 0); fill: rgb(255, 0, 0); stroke-width: 1px; display: none;"></polygon></g><g points="24,4 24,9 " class="polyline" name="pin" type="simple"><polyline points="24,4 24,9 " style="stroke: rgb(255, 0, 0); stroke-width: 1px;"></polyline><rect width="6" height="6" class="pin" x="21" y="1" style="stroke: rgb(0, 255, 0); fill: none; stroke-width: 1px;"></rect><text r="0" x="22" y="11" transform="rotate(90 22 11)" style="font-size: 12px; font-family: &quot;Times New Roman&quot;; display: none; fill: rgb(0, 0, 0);">p</text><text r="0" x="24" y="4" transform="rotate(0 24 4)" style="font-size: 12px; font-family: &quot;Times New Roman&quot;; display: none;">+</text><ellipse cx="24" cy="7.5" rx="1.5" ry="1.5" style="stroke: rgb(255, 0, 0); fill: rgb(255, 0, 0); stroke-width: 1px; display: none;"></ellipse><polygon points="22.5,9 25.5,9 24,10.5 " style="stroke: rgb(255, 0, 0); fill: rgb(255, 0, 0); stroke-width: 1px; display: none;"></polygon></g><g points="24,39 24,34 " class="polyline" name="pin" type="simple"><polyline points="24,39 24,34 " style="stroke: rgb(255, 0, 0); stroke-width: 1px;"></polyline><rect width="6" height="6" class="pin" x="21" y="36" style="stroke: rgb(0, 255, 0); fill: none; stroke-width: 1px;"></rect><text r="0" x="22" y="32" transform="rotate(90 22 32)" style="font-size: 12px; font-family: &quot;Times New Roman&quot;; display: none; fill: rgb(0, 0, 0);">n</text><text r="0" x="24" y="39" transform="rotate(0 24 39)" style="font-size: 12px; font-family: &quot;Times New Roman&quot;; display: none;">-</text><ellipse cx="24" cy="35.5" rx="1.5" ry="1.5" style="stroke: rgb(255, 0, 0); fill: rgb(255, 0, 0); stroke-width: 1px; display: none;"></ellipse><polygon points="22.5,34 25.5,34 24,32.5 " style="stroke: rgb(255, 0, 0); fill: rgb(255, 0, 0); stroke-width: 1px; display: none;"></polygon></g><rect class="draggable" x="12" y="9" name="rect" width="23" height="25" style="stroke: rgb(0, 0, 255); fill: rgb(255, 255, 127); stroke-width: 1px;"></rect><polyline points="30,15 24,26 24,34 " class="polyline" name="polyline" style="stroke: rgb(0, 0, 255); fill: none; stroke-width: 1px;"></polyline><polyline points="24,9 24,15 " class="polyline" name="polyline" style="stroke: rgb(0, 0, 255); fill: none; stroke-width: 1px;"></polyline><polyline points="14,14 14,14 " class="polyline" name="polyline" style="stroke: rgb(0, 0, 255); fill: none; stroke-width: 1px;"></polyline><polyline points="12,14 16,14 16,29 12,29 " class="polyline" name="polyline" style="stroke: rgb(0, 0, 255); fill: none; stroke-width: 1px;"></polyline><polyline points="18,21 16,24 14,21 " class="polyline" name="polyline" style="stroke: rgb(0, 0, 255); fill: none; stroke-width: 1px;"></polyline></svg>