<svg xmlns="http://www.w3.org/2000/svg" xmlns:xlink="http://www.w3.org/1999/xlink"    viewBox="0 0  69 54 " width="103.5" height="81"><g width="200" top="0" left="0" height="150" version="0.0.1" zoom="4.799999999999999" reference="T" description=" Transformer" symbolname="Transformer"></g><path class="arc" name="arc" d="M 20.532162853836137 3.5146056613783356 A 7.5 7.5 0 1 1 20.465647125090687 18.480940248730512" cx="21" cy="11" rx="7.5" ry="7.5" startangle="4.649970170388731" deltaangle="3.141592653589793" endangle="3.275318928371041" style="stroke: rgb(0, 0, 255); fill: none; stroke-width: 1px;"></path><polyline points="22,4 13,4 " class="polyline" name="polyline" style="stroke: rgb(0, 0, 255); fill: none; stroke-width: 1px;"></polyline><polyline points="21,49 13,49 " class="polyline" name="polyline" style="stroke: rgb(0, 0, 255); fill: none; stroke-width: 1px;"></polyline><polyline points="54,4 48,4 " class="polyline" name="polyline" style="stroke: rgb(0, 0, 255); fill: none; stroke-width: 1px;"></polyline><polyline points="47,49 54,49 " class="polyline" name="polyline" style="stroke: rgb(0, 0, 255); fill: none; stroke-width: 1px;"></polyline><g points="4,4 14,4 " class="polyline" name="pin" type="simple"><polyline points="4,4 14,4 " style="stroke: rgb(255, 0, 0); stroke-width: 1px;"></polyline><rect width="6" height="6" class="pin" x="1" y="1" style="stroke: rgb(0, 255, 0); fill: none; stroke-width: 1px;"></rect><text r="0" x="16" y="6" transform="rotate(0 16 6)" style="font-size: 12px; font-family: &quot;Times New Roman&quot;; display: none;">p1</text><text r="0" x="4" y="4" transform="rotate(0 4 4)" style="font-size: 12px; font-family: &quot;Times New Roman&quot;; display: none;">+</text><ellipse cx="12.5" cy="4" rx="1.5" ry="1.5" style="stroke: rgb(255, 0, 0); fill: rgb(255, 0, 0); stroke-width: 1px; display: none;"></ellipse><polygon points="14,2.5 14,5.5 15.5,4 " style="stroke: rgb(255, 0, 0); fill: rgb(255, 0, 0); stroke-width: 1px; display: none;"></polygon></g><g points="4,49 14,49 " class="polyline" name="pin" type="simple"><polyline points="4,49 14,49 " style="stroke: rgb(255, 0, 0); stroke-width: 1px;"></polyline><rect width="6" height="6" class="pin" x="1" y="46" style="stroke: rgb(0, 255, 0); fill: none; stroke-width: 1px;"></rect><text r="0" x="16" y="51" transform="rotate(0 16 51)" style="font-size: 12px; font-family: &quot;Times New Roman&quot;; display: none;">n1</text><text r="0" x="4" y="49" transform="rotate(0 4 49)" style="font-size: 12px; font-family: &quot;Times New Roman&quot;; display: none;">-</text><ellipse cx="12.5" cy="49" rx="1.5" ry="1.5" style="stroke: rgb(255, 0, 0); fill: rgb(255, 0, 0); stroke-width: 1px; display: none;"></ellipse><polygon points="14,47.5 14,50.5 15.5,49 " style="stroke: rgb(255, 0, 0); fill: rgb(255, 0, 0); stroke-width: 1px; display: none;"></polygon></g><g points="64,4 54,4 " class="polyline" name="pin" type="simple"><polyline points="64,4 54,4 " style="stroke: rgb(255, 0, 0); stroke-width: 1px;"></polyline><rect width="6" height="6" class="pin" x="61" y="1" style="stroke: rgb(0, 255, 0); fill: none; stroke-width: 1px;"></rect><text r="0" x="54" y="6" transform="rotate(0 54 6)" style="font-size: 12px; font-family: &quot;Times New Roman&quot;; display: none;">p2</text><text r="0" x="64" y="4" transform="rotate(0 64 4)" style="font-size: 12px; font-family: &quot;Times New Roman&quot;; display: none;">+</text><ellipse cx="55.5" cy="4" rx="1.5" ry="1.5" style="stroke: rgb(255, 0, 0); fill: rgb(255, 0, 0); stroke-width: 1px; display: none;"></ellipse><polygon points="54,2.5 54,5.5 52.5,4 " style="stroke: rgb(255, 0, 0); fill: rgb(255, 0, 0); stroke-width: 1px; display: none;"></polygon></g><g points="64,49 54,49 " class="polyline" name="pin" type="simple"><polyline points="64,49 54,49 " style="stroke: rgb(255, 0, 0); stroke-width: 1px;"></polyline><rect width="6" height="6" class="pin" x="61" y="46" style="stroke: rgb(0, 255, 0); fill: none; stroke-width: 1px;"></rect><text r="0" x="54" y="51" transform="rotate(0 54 51)" style="font-size: 12px; font-family: &quot;Times New Roman&quot;; display: none;">n2</text><text r="0" x="64" y="49" transform="rotate(0 64 49)" style="font-size: 12px; font-family: &quot;Times New Roman&quot;; display: none;">-</text><ellipse cx="55.5" cy="49" rx="1.5" ry="1.5" style="stroke: rgb(255, 0, 0); fill: rgb(255, 0, 0); stroke-width: 1px; display: none;"></ellipse><polygon points="54,47.5 54,50.5 52.5,49 " style="stroke: rgb(255, 0, 0); fill: rgb(255, 0, 0); stroke-width: 1px; display: none;"></polygon></g><ellipse class="draggable" name="ellipse" cx="17" cy="7" rx="1.5" ry="1.5" style="stroke: rgb(0, 0, 255); fill: rgb(0, 0, 255); stroke-width: 1px;"></ellipse><text class="draggable" name="text" x="15" y="19" r="0" rtemp="0" transform="rotate(0 15  19)" style="fill: rgb(255, 0, 0); font-weight: normal; font-style: normal; font-size: 6px; font-family: &quot;Times New Roman&quot;;" rid="display">P</text><text class="draggable" name="text" x="50" y="19" r="0" rtemp="0" transform="rotate(0 50  19)" style="fill: rgb(255, 0, 0); font-weight: normal; font-style: normal; font-size: 6px; font-family: &quot;Times New Roman&quot;;" rid="display">S</text><path class="arc" name="arc" d="M 20.532162853836137 18.514605661378337 A 7.5 7.5 0 1 1 20.465647125090687 33.48094024873051" cx="21" cy="26" rx="7.5" ry="7.5" startangle="4.649970170388731" deltaangle="3.141592653589793" endangle="3.275318928371041" style="stroke: rgb(0, 0, 255); fill: none; stroke-width: 1px;"></path><path class="arc" name="arc" d="M 20.532162853836137 33.51460566137833 A 7.5 7.5 0 1 1 20.465647125090687 48.48094024873051" cx="21" cy="41" rx="7.5" ry="7.5" startangle="4.649970170388731" deltaangle="3.141592653589793" endangle="3.275318928371041" style="stroke: rgb(0, 0, 255); fill: none; stroke-width: 1px;"></path><polyline points="31,5 31,48 " class="polyline" name="polyline" style="stroke: rgb(0, 0, 255); fill: none; stroke-width: 1px;"></polyline><rect class="draggable" x="33" y="4" name="rect" width="3" height="45" style="stroke: rgb(0, 0, 255); fill: rgb(0, 0, 255); stroke-width: 1px;"></rect><polyline points="38,5 38,48 " class="polyline" name="polyline" style="stroke: rgb(0, 0, 255); fill: none; stroke-width: 1px;"></polyline><path class="arc" name="arc" d="M 48.469776175611756 18.487057798812472 A 8 7.5 0 1 1 48.56138744347289 3.5184889531968624" cx="48" cy="11" rx="8" ry="7.5" startangle="7.795225811258761" deltaangle="3.141592653589793" endangle="3.2705796273615757" style="stroke: rgb(0, 0, 255); fill: none; stroke-width: 1px;"></path><path class="arc" name="arc" d="M 47.44041516463602 33.48705779881247 A 7.5 7.5 0 1 1 47.52630072825583 18.51848895319686" cx="47" cy="26" rx="7.5" ry="7.5" startangle="7.795225811258761" deltaangle="3.141592653589793" endangle="3.2705796273615757" style="stroke: rgb(0, 0, 255); fill: none; stroke-width: 1px;"></path><path class="arc" name="arc" d="M 47.498892578928306 48.48338868392457 A 7.5 7.5 0 1 1 47.467837146163866 33.51460566137834" cx="47" cy="41" rx="7.5" ry="7.5" startangle="7.7874134701986595" deltaangle="3.141592653589793" endangle="3.2705796273615757" style="stroke: rgb(0, 0, 255); fill: none; stroke-width: 1px;"></path><ellipse class="draggable" name="ellipse" cx="50" cy="7" rx="1.5" ry="1.5" style="stroke: rgb(0, 0, 255); fill: rgb(0, 0, 255); stroke-width: 1px;"></ellipse></svg>