<svg xmlns="http://www.w3.org/2000/svg" xmlns:xlink="http://www.w3.org/1999/xlink"    viewBox="0 0  29 59 " width="43.5" height="88.5"><g width="350" top="180" left="0" height="350" version="0.0.1" zoom="8.999999999999998" reference="Q" description=" BJT (PNP)" symbolname="BJT (PNP)"></g><g points="24,4 24,14 " class="polyline" name="pin" type="simple"><polyline points="24,4 24,14 " style="stroke: rgb(255, 0, 0); stroke-width: 1px;"></polyline><rect width="6" height="6" class="pin" x="21" y="1" style="stroke: rgb(0, 255, 0); fill: none; stroke-width: 1px;"></rect><text r="0" x="22" y="16" transform="rotate(90 22 16)" style="font-size: 7px; font-family: Arial; display: none; fill: rgb(0, 0, 0);">c</text><text r="0" x="24" y="4" transform="rotate(0 24 4)" style="font-size: 7px; font-family: Arial; display: none; fill: rgb(0, 0, 0);"> </text><ellipse cx="24" cy="12.5" rx="1.5" ry="1.5" style="stroke: rgb(255, 0, 0); fill: rgb(255, 0, 0); stroke-width: 1px; display: none;"></ellipse><polygon points="22.5,14 25.5,14 24,15.5 " style="stroke: rgb(255, 0, 0); fill: rgb(255, 0, 0); stroke-width: 1px; display: none;"></polygon></g><g points="4,29 14,29 " class="polyline" name="pin" type="simple"><polyline points="4,29 14,29 " style="stroke: rgb(255, 0, 0); stroke-width: 1px;"></polyline><rect width="6" height="6" class="pin" x="1" y="26" style="stroke: rgb(0, 255, 0); fill: none; stroke-width: 1px;"></rect><text r="0" x="16" y="31" transform="rotate(0 16 31)" style="font-size: 7px; font-family: Arial; display: none; fill: rgb(0, 0, 0);">b</text><text r="0" x="4" y="29" transform="rotate(0 4 29)" style="font-size: 7px; font-family: Arial; display: none; fill: rgb(0, 0, 0);"> </text><ellipse cx="12.5" cy="29" rx="1.5" ry="1.5" style="stroke: rgb(255, 0, 0); fill: rgb(255, 0, 0); stroke-width: 1px; display: none;"></ellipse><polygon points="14,27.5 14,30.5 15.5,29 " style="stroke: rgb(255, 0, 0); fill: rgb(255, 0, 0); stroke-width: 1px; display: none;"></polygon></g><g points="24,54 24,44 " class="polyline" name="pin" type="simple"><polyline points="24,54 24,44 " style="stroke: rgb(255, 0, 0); stroke-width: 1px;"></polyline><rect width="6" height="6" class="pin" x="21" y="51" style="stroke: rgb(0, 255, 0); fill: none; stroke-width: 1px;"></rect><text r="0" x="22" y="42" transform="rotate(90 22 42)" style="font-size: 7px; font-family: Arial; display: none; fill: rgb(0, 0, 0);">e</text><text r="0" x="24" y="54" transform="rotate(0 24 54)" style="font-size: 7px; font-family: Arial; display: none; fill: rgb(0, 0, 0);"> </text><ellipse cx="24" cy="45.5" rx="1.5" ry="1.5" style="stroke: rgb(255, 0, 0); fill: rgb(255, 0, 0); stroke-width: 1px; display: none;"></ellipse><polygon points="22.5,44 25.5,44 24,42.5 " style="stroke: rgb(255, 0, 0); fill: rgb(255, 0, 0); stroke-width: 1px; display: none;"></polygon></g><polyline points="24,9 24,14 14,24 " class="polyline" name="polyline" style="stroke: rgb(0, 0, 255); fill: none; stroke-width: 1px;"></polyline><polyline points="14,34 24,44 24,49 " class="polyline" name="polyline" style="stroke: rgb(0, 0, 255); fill: none; stroke-width: 1px;"></polyline><polyline points="14,19 14,39 " class="polyline" name="polyline" style="stroke: rgb(0, 0, 255); fill: none; stroke-width: 1px;"></polyline><polyline points="24,40 19,39 20,44 " class="polyline" name="polyline" style="stroke: rgb(0, 0, 255); fill: none; stroke-width: 1px;"></polyline><polyline points="14,29 9,29 " class="polyline" name="polyline" style="stroke: rgb(0, 0, 255); fill: none; stroke-width: 1px;"></polyline></svg>