<svg xmlns="http://www.w3.org/2000/svg" xmlns:xlink="http://www.w3.org/1999/xlink"    viewBox="0 0  39 59 " width="58.5" height="88.5"><g width="180" top="0" left="7" height="100" version="0.0.1" zoom="9.2" reference="I" description=" " modelname="DC Voltage" symbolname="SinCurrent"></g><g points="19,4 19,14 " class="polyline" name="pin"><polyline points="19,4 19,14 " style="stroke: rgb(255, 0, 0); stroke-width: 1px;"></polyline><rect width="6" height="6" class="pin" x="16" y="1" style="stroke: rgb(0, 255, 0); fill: none; stroke-width: 1px;"></rect><text r="0" x="17" y="16" transform="rotate(90 17 16)" style="font-size: 12px; font-family: &quot;Times New Roman&quot;; display: none;">p</text><text r="0" x="19" y="4" transform="rotate(0 19 4)" style="font-size: 12px; font-family: &quot;Times New Roman&quot;; display: none;">+</text></g><g points="19,54 19,44 " class="polyline" name="pin"><polyline points="19,54 19,44 " style="stroke: rgb(255, 0, 0); stroke-width: 1px;"></polyline><rect width="6" height="6" class="pin" x="16" y="51" style="stroke: rgb(0, 255, 0); fill: none; stroke-width: 1px;"></rect><text r="0" x="17" y="42" transform="rotate(90 17 42)" style="font-size: 12px; font-family: &quot;Times New Roman&quot;; display: none;">n</text><text r="0" x="19" y="54" transform="rotate(0 19 54)" style="font-size: 12px; font-family: &quot;Times New Roman&quot;; display: none;">-</text></g><ellipse class="draggable" name="ellipse" cx="19" cy="29" rx="15" ry="15" style="stroke: rgb(0, 0, 255); fill: rgb(255, 255, 127); stroke-width: 1px;"></ellipse><path class="arc" name="arc" d="M 27 30 A 4 5 0 0 1 19 30.000000000000004" cx="23" cy="30" rx="4" ry="5" startangle="6.283185307179586" deltaangle="3.141592653589793" endangle="3.141592653589793" style="stroke: rgb(0, 0, 255); fill: none; stroke-width: 1px;"></path><path class="arc" name="arc" d="M 11 30.000000000000004 A 4 5 0 0 1 19 29.999999999999996" cx="15" cy="30" rx="4" ry="5" startangle="9.42477796076938" deltaangle="3.141592653589793" endangle="3.141592653589793" style="stroke: rgb(0, 0, 255); fill: none; stroke-width: 1px;"></path><polyline points="19,21 19,41 " class="polyline" name="polyline" style="stroke: rgb(0, 0, 255); fill: none; stroke-width: 1px;"></polyline><polyline points="19,41 22,36 " class="polyline" name="polyline" style="stroke: rgb(0, 0, 255); fill: none; stroke-width: 1px;"></polyline><polyline points="19,41 16,36 " class="polyline" name="polyline" style="stroke: rgb(0, 0, 255); fill: none; stroke-width: 1px;"></polyline></svg>