<svg xmlns="http://www.w3.org/2000/svg" xmlns:xlink="http://www.w3.org/1999/xlink"    viewBox="0 0  44 29 " width="66" height="43.5"><g width="350" top="363" left="605" height="350" version="0.0.1" zoom="11.999999999999988" reference="X" description="{&quot;webPage&quot;:&quot;&quot;,&quot;info&quot;:&quot;&quot;}" symbolname="Buffer" type="null" model="standard"></g><g points="39,14 28,14 " class="polyline" name="pin" type="simple"><polyline points="39,14 28,14 " style="stroke: rgb(255, 0, 0); stroke-width: 1px;"></polyline><rect width="6" height="6" class="pin" x="36" y="11" style="stroke: rgb(0, 255, 0); fill: none; stroke-width: 1px;"></rect><text r="0" x="28" y="16" transform="rotate(0 28 16)" style="font-size: 12px; font-family: &quot;Times New Roman&quot;; display: none; fill: rgb(0, 0, 0);">Out</text><text r="0" x="39" y="14" transform="rotate(0 39 14)" style="font-size: 12px; font-family: &quot;Times New Roman&quot;; display: none;">+</text><ellipse cx="29.5" cy="14" rx="1.5" ry="1.5" style="stroke: rgb(255, 0, 0); fill: rgb(255, 0, 0); stroke-width: 1px; display: none;"></ellipse><polygon points="28,12.5 28,15.5 26.5,14 " style="stroke: rgb(255, 0, 0); fill: rgb(255, 0, 0); stroke-width: 1px; display: none;"></polygon></g><g points="4,14 14,14 " class="polyline" name="pin" type="simple"><polyline points="4,14 14,14 " style="stroke: rgb(255, 0, 0); stroke-width: 1px;"></polyline><rect width="6" height="6" class="pin" x="1" y="11" style="stroke: rgb(0, 255, 0); fill: none; stroke-width: 1px;"></rect><text r="0" x="16" y="16" transform="rotate(0 16 16)" style="font-size: 12px; font-family: &quot;Times New Roman&quot;; display: none; fill: rgb(0, 0, 0);">In</text><text r="0" x="4" y="14" transform="rotate(0 4 14)" style="font-size: 12px; font-family: &quot;Times New Roman&quot;; display: none;"> </text><ellipse cx="12.5" cy="14" rx="1.5" ry="1.5" style="stroke: rgb(255, 0, 0); fill: rgb(255, 0, 0); stroke-width: 1px; display: none;"></ellipse><polygon points="14,12.5 14,15.5 15.5,14 " style="stroke: rgb(255, 0, 0); fill: rgb(255, 0, 0); stroke-width: 1px; display: none;"></polygon></g><polyline points="14,4 14,24 28,14 14,4 " class="polyline" name="polyline" style="stroke: rgb(0, 0, 255); fill: none; stroke-width: 1px;"></polyline></svg>