<svg xmlns="http://www.w3.org/2000/svg" xmlns:xlink="http://www.w3.org/1999/xlink"    viewBox="0 0  49 39 " width="73.5" height="58.5"><g width="350" top="0" left="0" height="350" version="0.0.1" zoom="7.200000000000001" reference="X" description="The Logic NAND Gate is a combination of a digital logic AND gate and a NOT gate connected together in series. is a logic gate which produces an output which is false only if all its inputs are true." symbolname="NAND"></g><g points="44,19 34,19 " class="polyline" name="pin" type="dot"><polyline points="44,19 34,19 " style="stroke: rgb(255, 0, 0); stroke-width: 1px;"></polyline><rect width="6" height="6" class="pin" x="41" y="16" style="stroke: rgb(0, 255, 0); fill: none; stroke-width: 1px;"></rect><text r="0" x="34" y="21" transform="rotate(0 34 21)" style="font-size: 12px; font-family: &quot;Times New Roman&quot;; display: none;">o</text><text r="0" x="44" y="19" transform="rotate(0 44 19)" style="font-size: 12px; font-family: &quot;Times New Roman&quot;; display: none;">+</text><ellipse cx="35.5" cy="19" rx="1.5" ry="1.5" style="stroke: rgb(255, 0, 0); fill: rgb(255, 0, 0); stroke-width: 1px; display: block;"></ellipse><polygon points="34,17.5 34,20.5 32.5,19 " style="stroke: rgb(255, 0, 0); fill: rgb(255, 0, 0); stroke-width: 1px; display: none;"></polygon></g><polyline points="19,34 19,4 " class="polyline" name="polyline" style="stroke: rgb(0, 0, 255); fill: none; stroke-width: 1px;"></polyline><g points="9,9 19,9 " class="polyline" name="pin" type="simple"><polyline points="9,9 19,9 " style="stroke: rgb(255, 0, 0); stroke-width: 1px;"></polyline><rect width="6" height="6" class="pin" x="6" y="6" style="stroke: rgb(0, 255, 0); fill: none; stroke-width: 1px;"></rect><text r="0" x="21" y="11" transform="rotate(0 21 11)" style="font-size: 12px; font-family: &quot;Times New Roman&quot;; display: none;">I1</text><text r="0" x="9" y="9" transform="rotate(0 9 9)" style="font-size: 12px; font-family: &quot;Times New Roman&quot;; display: none;"> </text><ellipse cx="17.5" cy="9" rx="1.5" ry="1.5" style="stroke: rgb(255, 0, 0); fill: rgb(255, 0, 0); stroke-width: 1px; display: none;"></ellipse><polygon points="19,7.5 19,10.5 20.5,9 " style="stroke: rgb(255, 0, 0); fill: rgb(255, 0, 0); stroke-width: 1px; display: none;"></polygon></g><g points="9,29 19,29 " class="polyline" name="pin" type="simple"><polyline points="9,29 19,29 " style="stroke: rgb(255, 0, 0); stroke-width: 1px;"></polyline><rect width="6" height="6" class="pin" x="6" y="26" style="stroke: rgb(0, 255, 0); fill: none; stroke-width: 1px;"></rect><text r="0" x="21" y="31" transform="rotate(0 21 31)" style="font-size: 12px; font-family: &quot;Times New Roman&quot;; display: none;">I2</text><text r="0" x="9" y="29" transform="rotate(0 9 29)" style="font-size: 12px; font-family: &quot;Times New Roman&quot;; display: none;"> </text><ellipse cx="17.5" cy="29" rx="1.5" ry="1.5" style="stroke: rgb(255, 0, 0); fill: rgb(255, 0, 0); stroke-width: 1px; display: none;"></ellipse><polygon points="19,27.5 19,30.5 20.5,29 " style="stroke: rgb(255, 0, 0); fill: rgb(255, 0, 0); stroke-width: 1px; display: none;"></polygon></g><path class="arc" name="arc" d="M 18.999999999999996 4 A 15 15 0 0 1 19.000000000000004 34" cx="19" cy="19" rx="15" ry="15" startangle="4.71238898038469" deltaangle="3.141592653589793" endangle="3.141592653589793" style="stroke: rgb(0, 0, 255); fill: none; stroke-width: 1px;"></path></svg>