<svg xmlns="http://www.w3.org/2000/svg" xmlns:xlink="http://www.w3.org/1999/xlink"    viewBox="0 0  44 29 " width="66" height="43.5"><g width="350" top="0" left="0" height="350" version="0.0.1" zoom="7.200000000000001" reference="X" description="The Logic NAND Gate is a combination of a digital logic AND gate and a NOT gate connected together in series. is a logic gate which produces an output which is false only if all its inputs are true." symbolname="NAND"></g><g points="39,14 29,14 " class="polyline" name="pin" type="dot"><polyline points="39,14 29,14 " style="stroke: rgb(255, 0, 0); stroke-width: 1px;"></polyline><rect width="6" height="6" class="pin" x="36" y="11" style="stroke: rgb(0, 255, 0); fill: none; stroke-width: 1px;"></rect><text r="0" x="29" y="16" transform="rotate(0 29 16)" style="font-size: 12px; font-family: &quot;Times New Roman&quot;; display: none;">o</text><text r="0" x="39" y="14" transform="rotate(0 39 14)" style="font-size: 12px; font-family: &quot;Times New Roman&quot;; display: none;">+</text><ellipse cx="30.5" cy="14" rx="1.5" ry="1.5" style="stroke: rgb(255, 0, 0); fill: rgb(255, 0, 0); stroke-width: 1px; display: block;"></ellipse><polygon points="29,12.5 29,15.5 27.5,14 " style="stroke: rgb(255, 0, 0); fill: rgb(255, 0, 0); stroke-width: 1px; display: none;"></polygon></g><g points="4,14 14,14 " class="polyline" name="pin" type="simple"><polyline points="4,14 14,14 " style="stroke: rgb(255, 0, 0); stroke-width: 1px;"></polyline><rect width="6" height="6" class="pin" x="1" y="11" style="stroke: rgb(0, 255, 0); fill: none; stroke-width: 1px;"></rect><text r="0" x="16" y="16" transform="rotate(0 16 16)" style="font-size: 12px; font-family: &quot;Times New Roman&quot;; display: none;">I2</text><text r="0" x="4" y="14" transform="rotate(0 4 14)" style="font-size: 12px; font-family: &quot;Times New Roman&quot;; display: none;"> </text><ellipse cx="12.5" cy="14" rx="1.5" ry="1.5" style="stroke: rgb(255, 0, 0); fill: rgb(255, 0, 0); stroke-width: 1px; display: none;"></ellipse><polygon points="14,12.5 14,15.5 15.5,14 " style="stroke: rgb(255, 0, 0); fill: rgb(255, 0, 0); stroke-width: 1px; display: none;"></polygon></g><polyline points="14,4 14,24 29,14 14,4 " class="polyline" name="polyline" style="stroke: rgb(0, 0, 255); fill: none; stroke-width: 1px;"></polyline></svg>