<svg xmlns="http://www.w3.org/2000/svg" xmlns:xlink="http://www.w3.org/1999/xlink"    viewBox="0 0  39 29 " width="58.5" height="43.5"><g width="200" top="123" left="0" height="200" version="0.0.1" zoom="10.399999999999993" reference="C" description="Capacitor" symbolname="Capacitor"></g><g points="4,14 14,14 " class="polyline" name="pin" type="simple"><polyline points="4,14 14,14 " style="stroke: rgb(255, 0, 0); stroke-width: 1px;"></polyline><rect width="6" height="6" class="pin" x="1" y="11" style="stroke: rgb(0, 255, 0); fill: none; stroke-width: 1px;"></rect><text r="0" x="16" y="16" transform="rotate(0 16 16)" style="font-size: 12px; font-family: &quot;Times New Roman&quot;; display: none;">p</text><text r="0" x="4" y="14" transform="rotate(0 4 14)" style="font-size: 12px; font-family: &quot;Times New Roman&quot;; display: none;">+</text><ellipse cx="12.5" cy="14" rx="1.5" ry="1.5" style="stroke: rgb(255, 0, 0); fill: rgb(255, 0, 0); stroke-width: 1px; display: none;"></ellipse><polygon points="14,12.5 14,15.5 15.5,14 " style="stroke: rgb(255, 0, 0); fill: rgb(255, 0, 0); stroke-width: 1px; display: none;"></polygon></g><g points="34,14 24,14 " class="polyline" name="pin" type="simple"><polyline points="34,14 24,14 " style="stroke: rgb(255, 0, 0); stroke-width: 1px;"></polyline><rect width="6" height="6" class="pin" x="31" y="11" style="stroke: rgb(0, 255, 0); fill: none; stroke-width: 1px;"></rect><text r="0" x="24" y="16" transform="rotate(0 24 16)" style="font-size: 12px; font-family: &quot;Times New Roman&quot;; display: none;">n</text><text r="0" x="34" y="14" transform="rotate(0 34 14)" style="font-size: 12px; font-family: &quot;Times New Roman&quot;; display: none;">-</text><ellipse cx="25.5" cy="14" rx="1.5" ry="1.5" style="stroke: rgb(255, 0, 0); fill: rgb(255, 0, 0); stroke-width: 1px; display: none;"></ellipse><polygon points="24,12.5 24,15.5 22.5,14 " style="stroke: rgb(255, 0, 0); fill: rgb(255, 0, 0); stroke-width: 1px; display: none;"></polygon></g><polyline points="15,14 9,14 " class="polyline" name="polyline" style="stroke: rgb(0, 0, 255); fill: none; stroke-width: 1px;"></polyline><polyline points="29,14 23,14 " class="polyline" name="polyline" style="stroke: rgb(0, 0, 255); fill: none; stroke-width: 1px;"></polyline><polyline points="15,4 15,24 " class="polyline" name="polyline" style="stroke: rgb(0, 0, 255); fill: none; stroke-width: 1px;"></polyline><polyline points="23,4 23,24 " class="polyline" name="polyline" style="stroke: rgb(0, 0, 255); fill: none; stroke-width: 1px;"></polyline></svg>