<svg xmlns="http://www.w3.org/2000/svg" xmlns:xlink="http://www.w3.org/1999/xlink"    viewBox="0 0  64 19 " width="96" height="28.5"><g width="100" top="0" left="0" height="100" version="0.0.1" zoom="10.799999999999992" reference="G" description="Conductor" symbolname="Conductor"></g><g points="4,9 14,9 " class="polyline" name="pin" type="simple"><polyline points="4,9 14,9 " style="stroke: rgb(255, 0, 0); stroke-width: 1px;"></polyline><rect width="6" height="6" class="pin" x="1" y="6" style="stroke: rgb(0, 255, 0); fill: none; stroke-width: 1px;"></rect><text r="0" x="16" y="11" transform="rotate(0 16 11)" style="font-size: 12px; font-family: &quot;Times New Roman&quot;; display: none; fill: rgb(0, 0, 0);">pin1</text><text r="0" x="4" y="9" transform="rotate(0 4 9)" style="font-size: 12px; font-family: &quot;Times New Roman&quot;; display: none;">+</text><ellipse cx="12.5" cy="9" rx="1.5" ry="1.5" style="stroke: rgb(255, 0, 0); fill: rgb(255, 0, 0); stroke-width: 1px; display: none;"></ellipse><polygon points="14,7.5 14,10.5 15.5,9 " style="stroke: rgb(255, 0, 0); fill: rgb(255, 0, 0); stroke-width: 1px; display: none;"></polygon></g><g points="59,9 49,9 " class="polyline" name="pin" type="simple"><polyline points="59,9 49,9 " style="stroke: rgb(255, 0, 0); stroke-width: 1px;"></polyline><rect width="6" height="6" class="pin" x="56" y="6" style="stroke: rgb(0, 255, 0); fill: none; stroke-width: 1px;"></rect><text r="0" x="49" y="11" transform="rotate(0 49 11)" style="font-size: 12px; font-family: &quot;Times New Roman&quot;; display: none;">pin2</text><text r="0" x="59" y="9" transform="rotate(0 59 9)" style="font-size: 12px; font-family: &quot;Times New Roman&quot;; display: none;">-</text><ellipse cx="50.5" cy="9" rx="1.5" ry="1.5" style="stroke: rgb(255, 0, 0); fill: rgb(255, 0, 0); stroke-width: 1px; display: none;"></ellipse><polygon points="49,7.5 49,10.5 47.5,9 " style="stroke: rgb(255, 0, 0); fill: rgb(255, 0, 0); stroke-width: 1px; display: none;"></polygon></g><rect class="draggable" x="13" y="4" name="rect" width="36" height="10" style="stroke: rgb(0, 0, 255); fill: rgb(255, 255, 127); stroke-width: 1px;"></rect></svg>