<svg xmlns="http://www.w3.org/2000/svg" xmlns:xlink="http://www.w3.org/1999/xlink"    viewBox="0 0  59 33 " width="88.5" height="49.5"><g width="200" top="126" left="0" height="200" version="0.0.1" zoom="10.399999999999993" reference="L" description=" Inductor" symbolname="Inductor"></g><path class="arc" name="arc" d="M 15 16.000000000000004 A 6 12 0 1 1 25.24264068711929 24.48528137423856" cx="21" cy="16" rx="6" ry="12" startangle="9.42477796076938" deltaangle="3.141592653589793" endangle="3.9269908169872405" style="stroke: rgb(0, 0, 255); fill: none; stroke-width: 1px;"></path><g points="4,16 14,16 " class="polyline" name="pin" type="simple"><polyline points="4,16 14,16 " style="stroke: rgb(255, 0, 0); stroke-width: 1px;"></polyline><rect width="6" height="6" class="pin" x="1" y="13" style="stroke: rgb(0, 255, 0); fill: none; stroke-width: 1px;"></rect><text r="0" x="16" y="18" transform="rotate(0 16 18)" style="font-size: 12px; font-family: &quot;Times New Roman&quot;; display: none;">p</text><text r="0" x="4" y="16" transform="rotate(0 4 16)" style="font-size: 12px; font-family: &quot;Times New Roman&quot;; display: none;">+</text><ellipse cx="12.5" cy="16" rx="1.5" ry="1.5" style="stroke: rgb(255, 0, 0); fill: rgb(255, 0, 0); stroke-width: 1px; display: none;"></ellipse><polygon points="14,14.5 14,17.5 15.5,16 " style="stroke: rgb(255, 0, 0); fill: rgb(255, 0, 0); stroke-width: 1px; display: none;"></polygon></g><g points="54,16 44,16 " class="polyline" name="pin" type="simple"><polyline points="54,16 44,16 " style="stroke: rgb(255, 0, 0); stroke-width: 1px;"></polyline><rect width="6" height="6" class="pin" x="51" y="13" style="stroke: rgb(0, 255, 0); fill: none; stroke-width: 1px;"></rect><text r="0" x="44" y="18" transform="rotate(0 44 18)" style="font-size: 12px; font-family: &quot;Times New Roman&quot;; display: none;">n</text><text r="0" x="54" y="16" transform="rotate(0 54 16)" style="font-size: 12px; font-family: &quot;Times New Roman&quot;; display: none;">-</text><ellipse cx="45.5" cy="16" rx="1.5" ry="1.5" style="stroke: rgb(255, 0, 0); fill: rgb(255, 0, 0); stroke-width: 1px; display: none;"></ellipse><polygon points="44,14.5 44,17.5 42.5,16 " style="stroke: rgb(255, 0, 0); fill: rgb(255, 0, 0); stroke-width: 1px; display: none;"></polygon></g><polyline points="15,16 9,16 " class="polyline" name="polyline" style="stroke: rgb(0, 0, 255); fill: none; stroke-width: 1px;"></polyline><polyline points="49,16 43,16 " class="polyline" name="polyline" style="stroke: rgb(0, 0, 255); fill: none; stroke-width: 1px;"></polyline><path class="arc" name="arc" d="M 25.09525175926419 25.11107922838356 A 6 12 0 1 1 32.841106397986884 25.2186553551685" cx="29" cy="16" rx="6" ry="12" startangle="8.562607906102153" deltaangle="3.141592653589793" endangle="4.879820758855213" style="stroke: rgb(0, 0, 255); fill: none; stroke-width: 1px;"></path><path class="arc" name="arc" d="M 33.09525175926419 25.11107922838356 A 6 12 0 1 1 43 15.999999999999995" cx="37" cy="16" rx="6" ry="12" startangle="8.562607906102153" deltaangle="3.141592653589793" endangle="4.003762708257019" style="stroke: rgb(0, 0, 255); fill: none; stroke-width: 1px;"></path></svg>