<svg xmlns="http://www.w3.org/2000/svg" xmlns:xlink="http://www.w3.org/1999/xlink"    viewBox="0 0  64 61 " width="96" height="91.5"><g width="350" top="207" left="0" height="350" version="0.0.1" zoom="9.799999999999995" reference="M" description="Mutual Inductor" symbolname="Mutual Inductor"></g><g points="59,53 49,53 " class="polyline" name="pin" type="simple"><polyline points="59,53 49,53 " style="stroke: rgb(255, 0, 0); stroke-width: 1px;"></polyline><rect width="6" height="6" class="pin" x="56" y="50" style="stroke: rgb(0, 255, 0); fill: none; stroke-width: 1px;"></rect><text r="0" x="49" y="55" transform="rotate(0 49 55)" style="font-size: 12px; font-family: &quot;Times New Roman&quot;; display: none;">n2</text><text r="0" x="59" y="53" transform="rotate(0 59 53)" style="font-size: 12px; font-family: &quot;Times New Roman&quot;; display: none;">-</text><ellipse cx="50.5" cy="53" rx="1.5" ry="1.5" style="stroke: rgb(255, 0, 0); fill: rgb(255, 0, 0); stroke-width: 1px; display: none;"></ellipse><polygon points="49,51.5 49,54.5 47.5,53 " style="stroke: rgb(255, 0, 0); fill: rgb(255, 0, 0); stroke-width: 1px; display: none;"></polygon></g><polyline points="20,8 13,8 " class="polyline" name="polyline" style="stroke: rgb(0, 0, 255); fill: none; stroke-width: 1px;"></polyline><polyline points="49,53 54,53 " class="polyline" name="polyline" style="stroke: rgb(0, 0, 255); fill: none; stroke-width: 1px;"></polyline><g points="4,8 14,8 " class="polyline" name="pin" type="simple"><polyline points="4,8 14,8 " style="stroke: rgb(255, 0, 0); stroke-width: 1px;"></polyline><rect width="6" height="6" class="pin" x="1" y="5" style="stroke: rgb(0, 255, 0); fill: none; stroke-width: 1px;"></rect><text r="0" x="16" y="10" transform="rotate(0 16 10)" style="font-size: 12px; font-family: &quot;Times New Roman&quot;; display: none;">p1</text><text r="0" x="4" y="8" transform="rotate(0 4 8)" style="font-size: 12px; font-family: &quot;Times New Roman&quot;; display: none;">+</text><ellipse cx="12.5" cy="8" rx="1.5" ry="1.5" style="stroke: rgb(255, 0, 0); fill: rgb(255, 0, 0); stroke-width: 1px; display: none;"></ellipse><polygon points="14,6.5 14,9.5 15.5,8 " style="stroke: rgb(255, 0, 0); fill: rgb(255, 0, 0); stroke-width: 1px; display: none;"></polygon></g><g points="4,53 14,53 " class="polyline" name="pin" type="simple"><polyline points="4,53 14,53 " style="stroke: rgb(255, 0, 0); stroke-width: 1px;"></polyline><rect width="6" height="6" class="pin" x="1" y="50" style="stroke: rgb(0, 255, 0); fill: none; stroke-width: 1px;"></rect><text r="0" x="16" y="55" transform="rotate(0 16 55)" style="font-size: 12px; font-family: &quot;Times New Roman&quot;; display: none;">n1</text><text r="0" x="4" y="53" transform="rotate(0 4 53)" style="font-size: 12px; font-family: &quot;Times New Roman&quot;; display: none;">-</text><ellipse cx="12.5" cy="53" rx="1.5" ry="1.5" style="stroke: rgb(255, 0, 0); fill: rgb(255, 0, 0); stroke-width: 1px; display: none;"></ellipse><polygon points="14,51.5 14,54.5 15.5,53 " style="stroke: rgb(255, 0, 0); fill: rgb(255, 0, 0); stroke-width: 1px; display: none;"></polygon></g><g points="59,8 49,8 " class="polyline" name="pin" type="simple"><polyline points="59,8 49,8 " style="stroke: rgb(255, 0, 0); stroke-width: 1px;"></polyline><rect width="6" height="6" class="pin" x="56" y="5" style="stroke: rgb(0, 255, 0); fill: none; stroke-width: 1px;"></rect><text r="0" x="49" y="10" transform="rotate(0 49 10)" style="font-size: 12px; font-family: &quot;Times New Roman&quot;; display: none;">p2</text><text r="0" x="59" y="8" transform="rotate(0 59 8)" style="font-size: 12px; font-family: &quot;Times New Roman&quot;; display: none;">+</text><ellipse cx="50.5" cy="8" rx="1.5" ry="1.5" style="stroke: rgb(255, 0, 0); fill: rgb(255, 0, 0); stroke-width: 1px; display: none;"></ellipse><polygon points="49,6.5 49,9.5 47.5,8 " style="stroke: rgb(255, 0, 0); fill: rgb(255, 0, 0); stroke-width: 1px; display: none;"></polygon></g><text class="draggable" name="text" x="6" y="31" r="0" rtemp="0" transform="rotate(0 6  31)" style="fill: rgb(255, 0, 0); font-weight: normal; font-style: normal; font-size: 6px; font-family: &quot;Times New Roman&quot;;" rid="display">P</text><rect class="draggable" x="19" y="5" name="rect" width="9" height="50" style="stroke: rgb(170, 170, 127); fill: rgb(170, 170, 127); stroke-width: 1px;"></rect><ellipse class="draggable" name="ellipse" cx="23" cy="5" rx="4.5" ry="1" style="stroke: rgb(149, 149, 112); fill: rgb(149, 149, 112); stroke-width: 1px;"></ellipse><ellipse class="draggable" name="ellipse" cx="23" cy="55" rx="4.5" ry="1" style="stroke: rgb(170, 170, 127); fill: rgb(170, 170, 127); stroke-width: 1px;"></ellipse><path class="arc" name="arc" d="M 28.060517809103764 7.047827976392426 A 6.5 2.5 0 0 1 22.72524512160181 11.451451689227302" cx="24" cy="9" rx="6.5" ry="2.5" startangle="5.387129922608244" deltaangle="3.141592653589793" endangle="2.6642472712161194" style="stroke: rgb(0, 0, 255); fill: none; stroke-width: 1px;"></path><path class="arc" name="arc" d="M 18.542135908881267 16.34082294392261 A 7 2.5 0 0 1 23.457864091118733 11.659177056077388" cx="21" cy="14" rx="7" ry="2.5" startangle="8.212752304245054" deltaangle="3.141592653589793" endangle="3.141592653589793" style="stroke: rgb(0, 0, 255); fill: none; stroke-width: 1px;"></path><path class="arc" name="arc" d="M 28.060517809103764 17.047827976392426 A 6.5 2.5 0 0 1 22.72524512160181 21.4514516892273" cx="24" cy="19" rx="6.5" ry="2.5" startangle="5.387129922608244" deltaangle="3.141592653589793" endangle="2.6642472712161194" style="stroke: rgb(0, 0, 255); fill: none; stroke-width: 1px;"></path><path class="arc" name="arc" d="M 28.060517809103764 27.047827976392426 A 6.5 2.5 0 0 1 22.72524512160181 31.4514516892273" cx="24" cy="29" rx="6.5" ry="2.5" startangle="5.387129922608244" deltaangle="3.141592653589793" endangle="2.6642472712161194" style="stroke: rgb(0, 0, 255); fill: none; stroke-width: 1px;"></path><path class="arc" name="arc" d="M 18.542135908881267 26.34082294392261 A 7 2.5 0 0 1 23.457864091118733 21.65917705607739" cx="21" cy="24" rx="7" ry="2.5" startangle="8.212752304245054" deltaangle="3.141592653589793" endangle="3.141592653589793" style="stroke: rgb(0, 0, 255); fill: none; stroke-width: 1px;"></path><path class="arc" name="arc" d="M 18.542135908881267 36.34082294392261 A 7 2.5 0 0 1 23.457864091118733 31.65917705607739" cx="21" cy="34" rx="7" ry="2.5" startangle="8.212752304245054" deltaangle="3.141592653589793" endangle="3.141592653589793" style="stroke: rgb(0, 0, 255); fill: none; stroke-width: 1px;"></path><path class="arc" name="arc" d="M 28.060517809103764 38.047827976392426 A 6.5 2.5 0 0 1 22.72524512160181 42.4514516892273" cx="24" cy="40" rx="6.5" ry="2.5" startangle="5.387129922608244" deltaangle="3.141592653589793" endangle="2.6642472712161194" style="stroke: rgb(0, 0, 255); fill: none; stroke-width: 1px;"></path><path class="arc" name="arc" d="M 28.060517809103764 48.047827976392426 A 6.5 2.5 0 0 1 23.08076118445749 52.474873734152915" cx="24" cy="50" rx="6.5" ry="2.5" startangle="5.387129922608244" deltaangle="3.141592653589793" endangle="2.608748765970403" style="stroke: rgb(0, 0, 255); fill: none; stroke-width: 1px;"></path><path class="arc" name="arc" d="M 18.542135908881267 47.34082294392261 A 7 2.5 0 0 1 23.457864091118733 42.65917705607739" cx="21" cy="45" rx="7" ry="2.5" startangle="8.212752304245054" deltaangle="3.141592653589793" endangle="3.141592653589793" style="stroke: rgb(0, 0, 255); fill: none; stroke-width: 1px;"></path><polyline points="25,53 13,53 " class="polyline" name="polyline" style="stroke: rgb(0, 0, 255); fill: none; stroke-width: 1px;"></polyline><rect class="draggable" x="40" y="5" name="rect" width="9" height="50" style="stroke: rgb(170, 170, 127); fill: rgb(170, 170, 127); stroke-width: 1px;"></rect><polyline points="53,8 44,8 " class="polyline" name="polyline" style="stroke: rgb(0, 0, 255); fill: none; stroke-width: 1px;"></polyline><ellipse class="draggable" name="ellipse" cx="44" cy="5" rx="4.5" ry="1" style="stroke: rgb(149, 149, 112); fill: rgb(149, 149, 112); stroke-width: 1px;"></ellipse><ellipse class="draggable" name="ellipse" cx="44" cy="55" rx="4.5" ry="1" style="stroke: rgb(170, 170, 127); fill: rgb(170, 170, 127); stroke-width: 1px;"></ellipse><path class="arc" name="arc" d="M 39.542135908881264 12.340822943922612 A 7 2.5 0 0 1 44.457864091118736 7.659177056077388" cx="42" cy="10" rx="7" ry="2.5" startangle="8.212752304245054" deltaangle="3.141592653589793" endangle="3.141592653589793" style="stroke: rgb(0, 0, 255); fill: none; stroke-width: 1px;"></path><path class="arc" name="arc" d="M 49.060517809103764 13.047827976392426 A 6.5 2.5 0 0 1 43.72524512160181 17.4514516892273" cx="45" cy="15" rx="6.5" ry="2.5" startangle="5.387129922608244" deltaangle="3.141592653589793" endangle="2.6642472712161194" style="stroke: rgb(0, 0, 255); fill: none; stroke-width: 1px;"></path><path class="arc" name="arc" d="M 49.060517809103764 23.047827976392426 A 6.5 2.5 0 0 1 43.72524512160181 27.4514516892273" cx="45" cy="25" rx="6.5" ry="2.5" startangle="5.387129922608244" deltaangle="3.141592653589793" endangle="2.6642472712161194" style="stroke: rgb(0, 0, 255); fill: none; stroke-width: 1px;"></path><path class="arc" name="arc" d="M 39.542135908881264 22.34082294392261 A 7 2.5 0 0 1 44.457864091118736 17.65917705607739" cx="42" cy="20" rx="7" ry="2.5" startangle="8.212752304245054" deltaangle="3.141592653589793" endangle="3.141592653589793" style="stroke: rgb(0, 0, 255); fill: none; stroke-width: 1px;"></path><path class="arc" name="arc" d="M 39.542135908881264 32.34082294392261 A 7 2.5 0 0 1 44.457864091118736 27.65917705607739" cx="42" cy="30" rx="7" ry="2.5" startangle="8.212752304245054" deltaangle="3.141592653589793" endangle="3.141592653589793" style="stroke: rgb(0, 0, 255); fill: none; stroke-width: 1px;"></path><path class="arc" name="arc" d="M 49.060517809103764 33.047827976392426 A 6.5 2.5 0 0 1 43.72524512160181 37.4514516892273" cx="45" cy="35" rx="6.5" ry="2.5" startangle="5.387129922608244" deltaangle="3.141592653589793" endangle="2.6642472712161194" style="stroke: rgb(0, 0, 255); fill: none; stroke-width: 1px;"></path><path class="arc" name="arc" d="M 49.060517809103764 43.047827976392426 A 6.5 2.5 0 0 1 44.08076118445749 47.474873734152915" cx="45" cy="45" rx="6.5" ry="2.5" startangle="5.387129922608244" deltaangle="3.141592653589793" endangle="2.608748765970403" style="stroke: rgb(0, 0, 255); fill: none; stroke-width: 1px;"></path><path class="arc" name="arc" d="M 39.542135908881264 42.34082294392261 A 7 2.5 0 0 1 44.457864091118736 37.65917705607739" cx="42" cy="40" rx="7" ry="2.5" startangle="8.212752304245054" deltaangle="3.141592653589793" endangle="3.141592653589793" style="stroke: rgb(0, 0, 255); fill: none; stroke-width: 1px;"></path><path class="arc" name="arc" d="M 39.542135908881264 52.34082294392261 A 7 2.5 0 0 1 44.457864091118736 47.65917705607739" cx="42" cy="50" rx="7" ry="2.5" startangle="8.212752304245054" deltaangle="3.141592653589793" endangle="3.141592653589793" style="stroke: rgb(0, 0, 255); fill: none; stroke-width: 1px;"></path><text class="draggable" name="text" x="54" y="30" r="0" rtemp="0" transform="rotate(0 54  30)" style="fill: rgb(255, 0, 0); font-weight: normal; font-style: normal; font-size: 6px; font-family: &quot;Times New Roman&quot;;" rid="display">S</text></svg>