<svg xmlns="http://www.w3.org/2000/svg" xmlns:xlink="http://www.w3.org/1999/xlink"    viewBox="0 0  44 59 " width="66" height="88.5"><g width="180" top="0" left="0" height="100" version="0.0.1" zoom="8.000000000000004" reference="C" description=" " modelname="DC Voltage" symbolname="CVCS"></g><g points="4,4 4,14 " class="polyline" name="pin"><polyline points="4,4 4,14 " style="stroke: rgb(255, 0, 0); stroke-width: 1px;"></polyline><rect width="6" height="6" class="pin" x="1" y="1" style="stroke: rgb(0, 255, 0); fill: none; stroke-width: 1px;"></rect><text r="0" x="2" y="16" transform="rotate(90 2 16)" style="font-size: 12px; font-family: &quot;Times New Roman&quot;; display: none;">p1</text><text r="0" x="4" y="4" transform="rotate(0 4 4)" style="font-size: 12px; font-family: &quot;Times New Roman&quot;; display: none;">+</text></g><g points="4,54 4,44 " class="polyline" name="pin"><polyline points="4,54 4,44 " style="stroke: rgb(255, 0, 0); stroke-width: 1px;"></polyline><rect width="6" height="6" class="pin" x="1" y="51" style="stroke: rgb(0, 255, 0); fill: none; stroke-width: 1px;"></rect><text r="0" x="2" y="42" transform="rotate(90 2 42)" style="font-size: 12px; font-family: &quot;Times New Roman&quot;; display: none;">n1</text><text r="0" x="4" y="54" transform="rotate(0 4 54)" style="font-size: 12px; font-family: &quot;Times New Roman&quot;; display: none;">-</text></g><ellipse class="draggable" name="ellipse" cx="29" cy="29" rx="10" ry="10" style="stroke: rgb(0, 0, 255); fill: rgb(255, 255, 127); stroke-width: 1px;"></ellipse><g points="29,4 29,14 " class="polyline" name="pin"><polyline points="29,4 29,14 " style="stroke: rgb(255, 0, 0); stroke-width: 1px;"></polyline><rect width="6" height="6" class="pin" x="26" y="1" style="stroke: rgb(0, 255, 0); fill: none; stroke-width: 1px;"></rect><text r="0" x="27" y="16" transform="rotate(90 27 16)" style="font-size: 12px; font-family: &quot;Times New Roman&quot;; display: none;">p2</text><text r="0" x="29" y="4" transform="rotate(0 29 4)" style="font-size: 12px; font-family: &quot;Times New Roman&quot;; display: none;">+</text></g><g points="29,54 29,44 " class="polyline" name="pin"><polyline points="29,54 29,44 " style="stroke: rgb(255, 0, 0); stroke-width: 1px;"></polyline><rect width="6" height="6" class="pin" x="26" y="51" style="stroke: rgb(0, 255, 0); fill: none; stroke-width: 1px;"></rect><text r="0" x="27" y="42" transform="rotate(90 27 42)" style="font-size: 12px; font-family: &quot;Times New Roman&quot;; display: none;">n2</text><text r="0" x="29" y="54" transform="rotate(0 29 54)" style="font-size: 12px; font-family: &quot;Times New Roman&quot;; display: none;">-</text></g><polyline points="29,14 29,19 " class="polyline" name="polyline" style="stroke: rgb(0, 0, 255); fill: none; stroke-width: 1px;"></polyline><polyline points="29,39 29,46 " class="polyline" name="polyline" style="stroke: rgb(0, 0, 255); fill: none; stroke-width: 1px;"></polyline><polyline points="29,19 29,39 " class="polyline" name="polyline" style="stroke: rgb(0, 0, 255); fill: none; stroke-width: 1px;"></polyline><polyline points="4,14 4,19 " class="polyline" name="polyline" style="stroke: rgb(0, 0, 255); fill: none; stroke-width: 1px;"></polyline><polyline points="4,39 4,44 " class="polyline" name="polyline" style="stroke: rgb(0, 0, 255); fill: none; stroke-width: 1px;"></polyline><polyline points="29,33 25,28 " class="polyline" name="polyline" style="stroke: rgb(0, 0, 255); fill: none; stroke-width: 1px;"></polyline><polyline points="33,28 29,33 " class="polyline" name="polyline" style="stroke: rgb(0, 0, 255); fill: none; stroke-width: 1px;"></polyline><polyline points="11,14 7,14 " class="polyline" name="polyline" style="stroke: rgb(0, 0, 255); fill: none; stroke-width: 1px;"></polyline><polyline points="9,12 9,16 " class="polyline" name="polyline" style="stroke: rgb(0, 0, 255); fill: none; stroke-width: 1px;"></polyline></svg>