<svg xmlns="http://www.w3.org/2000/svg" xmlns:xlink="http://www.w3.org/1999/xlink"    viewBox="0 0  89 89 " width="133.5" height="133.5"><g width="250" top="0" left="0" height="250" version="0.0.1" zoom="7.800000000000002" reference="D" description=" " symbolname="Diode Bridge"></g><g points="44,4 44,14 " class="polyline" name="pin" type="simple" netid="0" netidpos="0"><polyline points="44,4 44,14 " style="stroke: rgb(255, 0, 0); stroke-width: 1px;"></polyline><rect width="6" height="6" class="pin" x="41" y="1" style="stroke: rgb(0, 255, 0); fill: none; stroke-width: 1px; display: none;"></rect><text r="0" x="42" y="16" transform="rotate(90 42 16)" style="font-size: 12px; font-family: &quot;Times New Roman&quot;; display: none;">a</text><text r="0" x="44" y="4" transform="rotate(0 44 4)" style="font-size: 12px; font-family: &quot;Times New Roman&quot;; display: none;">-</text><ellipse cx="44" cy="12.5" rx="1.5" ry="1.5" style="stroke: rgb(255, 0, 0); fill: rgb(255, 0, 0); stroke-width: 1px; display: none;"></ellipse><polygon points="42.5,14 45.5,14 44,15.5 " style="stroke: rgb(255, 0, 0); fill: rgb(255, 0, 0); stroke-width: 1px; display: none;"></polygon></g><polyline points="29,19 39,29 " class="polyline" name="polyline" style="stroke: rgb(0, 0, 255); fill: none; stroke-width: 1px;"></polyline><polygon points="30,38 34,24 20,28 " class="draggable" name="polygon" style="stroke: rgb(0, 0, 255); fill: rgb(255, 241, 85); stroke-width: 1px;"></polygon><polyline points="59,49 69,59 " class="polyline" name="polyline" style="stroke: rgb(0, 0, 255); fill: none; stroke-width: 1px;"></polyline><polygon points="59,19 64,34 49,29 " class="draggable" name="polygon" style="stroke: rgb(0, 0, 255); fill: rgb(255, 241, 85); stroke-width: 1px;"></polygon><polyline points="60,39 70,29 " class="polyline" name="polyline" style="stroke: rgb(0, 0, 255); fill: none; stroke-width: 1px;"></polyline><polyline points="34,24 44,14 " class="polyline" name="polyline" style="stroke: rgb(0, 0, 255); fill: none; stroke-width: 1px;"></polyline><polyline points="44,14 54,24 " class="polyline" name="polyline" style="stroke: rgb(0, 0, 255); fill: none; stroke-width: 1px;"></polyline><polyline points="64,34 74,44 " class="polyline" name="polyline" style="stroke: rgb(0, 0, 255); fill: none; stroke-width: 1px;"></polyline><polyline points="74,44 63,55 " class="polyline" name="polyline" style="stroke: rgb(0, 0, 255); fill: none; stroke-width: 1px;"></polyline><polyline points="25,33 14,44 " class="polyline" name="polyline" style="stroke: rgb(0, 0, 255); fill: none; stroke-width: 1px;"></polyline><polyline points="14,44 24,54 " class="polyline" name="polyline" style="stroke: rgb(0, 0, 255); fill: none; stroke-width: 1px;"></polyline><polyline points="30,70 40,60 " class="polyline" name="polyline" style="stroke: rgb(0, 0, 255); fill: none; stroke-width: 1px;"></polyline><polyline points="44,74 54,64 " class="polyline" name="polyline" style="stroke: rgb(0, 0, 255); fill: none; stroke-width: 1px;"></polyline><polyline points="34,64 44,74 " class="polyline" name="polyline" style="stroke: rgb(0, 0, 255); fill: none; stroke-width: 1px;"></polyline><g points="84,44 74,44 " class="polyline" name="pin" type="simple" netid="3" netidpos="2"><polyline points="84,44 74,44 " style="stroke: rgb(255, 0, 0); stroke-width: 1px;"></polyline><rect width="6" height="6" class="pin" x="81" y="41" style="stroke: rgb(0, 255, 0); fill: none; stroke-width: 1px; display: none;"></rect><text r="0" x="74" y="46" transform="rotate(0 74 46)" style="font-size: 12px; font-family: &quot;Times New Roman&quot;; display: none;">b</text><text r="0" x="84" y="44" transform="rotate(0 84 44)" style="font-size: 12px; font-family: &quot;Times New Roman&quot;; display: none;"> </text><ellipse cx="75.5" cy="44" rx="1.5" ry="1.5" style="stroke: rgb(255, 0, 0); fill: rgb(255, 0, 0); stroke-width: 1px; display: none;"></ellipse><polygon points="74,42.5 74,45.5 72.5,44 " style="stroke: rgb(255, 0, 0); fill: rgb(255, 0, 0); stroke-width: 1px; display: none;"></polygon></g><g points="44,84 44,74 " class="polyline" name="pin" type="simple" netid="4" netidpos="0"><polyline points="44,84 44,74 " style="stroke: rgb(255, 0, 0); stroke-width: 1px;"></polyline><rect width="6" height="6" class="pin" x="41" y="81" style="stroke: rgb(0, 255, 0); fill: none; stroke-width: 1px; display: none;"></rect><text r="0" x="42" y="72" transform="rotate(90 42 72)" style="font-size: 12px; font-family: &quot;Times New Roman&quot;; display: none;">c</text><text r="0" x="44" y="84" transform="rotate(0 44 84)" style="font-size: 12px; font-family: &quot;Times New Roman&quot;; display: none;"> </text><ellipse cx="44" cy="75.5" rx="1.5" ry="1.5" style="stroke: rgb(255, 0, 0); fill: rgb(255, 0, 0); stroke-width: 1px; display: none;"></ellipse><polygon points="42.5,74 45.5,74 44,72.5 " style="stroke: rgb(255, 0, 0); fill: rgb(255, 0, 0); stroke-width: 1px; display: none;"></polygon></g><g points="4,44 14,44 " class="polyline" name="pin" type="simple" netid="1" netidpos="0"><polyline points="4,44 14,44 " style="stroke: rgb(255, 0, 0); stroke-width: 1px;"></polyline><rect width="6" height="6" class="pin" x="1" y="41" style="stroke: rgb(0, 255, 0); fill: none; stroke-width: 1px; display: none;"></rect><text r="0" x="16" y="46" transform="rotate(0 16 46)" style="font-size: 12px; font-family: &quot;Times New Roman&quot;; display: none;">d</text><text r="0" x="4" y="44" transform="rotate(0 4 44)" style="font-size: 12px; font-family: &quot;Times New Roman&quot;; display: none;"> </text><ellipse cx="12.5" cy="44" rx="1.5" ry="1.5" style="stroke: rgb(255, 0, 0); fill: rgb(255, 0, 0); stroke-width: 1px; display: none;"></ellipse><polygon points="14,42.5 14,45.5 15.5,44 " style="stroke: rgb(255, 0, 0); fill: rgb(255, 0, 0); stroke-width: 1px; display: none;"></polygon></g><polygon points="29,49 34,64 19,59 " class="draggable" name="polygon" style="stroke: rgb(0, 0, 255); fill: rgb(255, 241, 85); stroke-width: 1px;"></polygon><polygon points="59,69 63,55 49,59 " class="draggable" name="polygon" style="stroke: rgb(0, 0, 255); fill: rgb(255, 241, 85); stroke-width: 1px;"></polygon></svg>