<svg xmlns="http://www.w3.org/2000/svg" xmlns:xlink="http://www.w3.org/1999/xlink"    viewBox="0 0  39 49 " width="58.5" height="73.5"><g width="200" top="0" left="426" height="150" version="0.0.1" zoom="8.4" reference="M" description="MOSFET (PMOS)" symbolname="MOSFET (PMOS)"></g><g points="34,4 34,9 " class="polyline" name="pin" type="simple"><polyline points="34,4 34,9 " style="stroke: rgb(255, 0, 0); stroke-width: 1px;"></polyline><rect width="6" height="6" class="pin" x="31" y="1" style="stroke: rgb(0, 255, 0); fill: none; stroke-width: 1px;"></rect><text r="0" x="32" y="11" transform="rotate(90 32 11)" style="font-size: 7px; font-family: Arial; display: none; fill: rgb(0, 0, 0);">d</text><text r="0" x="34" y="4" transform="rotate(0 34 4)" style="font-size: 7px; font-family: Arial; display: none; fill: rgb(0, 0, 0);"> </text><ellipse cx="34" cy="7.5" rx="1.5" ry="1.5" style="stroke: rgb(255, 0, 0); fill: rgb(255, 0, 0); stroke-width: 1px; display: none;"></ellipse><polygon points="32.5,9 35.5,9 34,10.5 " style="stroke: rgb(255, 0, 0); fill: rgb(255, 0, 0); stroke-width: 1px; display: none;"></polygon></g><g points="4,24 9,24 " class="polyline" name="pin" type="simple"><polyline points="4,24 9,24 " style="stroke: rgb(255, 0, 0); stroke-width: 1px;"></polyline><rect width="6" height="6" class="pin" x="1" y="21" style="stroke: rgb(0, 255, 0); fill: none; stroke-width: 1px;"></rect><text r="0" x="11" y="26" transform="rotate(0 11 26)" style="font-size: 7px; font-family: Arial; display: none; fill: rgb(0, 0, 0);">g</text><text r="0" x="4" y="24" transform="rotate(0 4 24)" style="font-size: 7px; font-family: Arial; display: none; fill: rgb(0, 0, 0);"> </text><ellipse cx="7.5" cy="24" rx="1.5" ry="1.5" style="stroke: rgb(255, 0, 0); fill: rgb(255, 0, 0); stroke-width: 1px; display: none;"></ellipse><polygon points="9,22.5 9,25.5 10.5,24 " style="stroke: rgb(255, 0, 0); fill: rgb(255, 0, 0); stroke-width: 1px; display: none;"></polygon></g><g points="34,44 34,39 " class="polyline" name="pin" type="simple"><polyline points="34,44 34,39 " style="stroke: rgb(255, 0, 0); stroke-width: 1px;"></polyline><rect width="6" height="6" class="pin" x="31" y="41" style="stroke: rgb(0, 255, 0); fill: none; stroke-width: 1px;"></rect><text r="0" x="32" y="37" transform="rotate(90 32 37)" style="font-size: 7px; font-family: Arial; display: none; fill: rgb(0, 0, 0);">s</text><text r="0" x="34" y="44" transform="rotate(0 34 44)" style="font-size: 7px; font-family: Arial; display: none; fill: rgb(0, 0, 0);"> </text><ellipse cx="34" cy="40.5" rx="1.5" ry="1.5" style="stroke: rgb(255, 0, 0); fill: rgb(255, 0, 0); stroke-width: 1px; display: none;"></ellipse><polygon points="32.5,39 35.5,39 34,37.5 " style="stroke: rgb(255, 0, 0); fill: rgb(255, 0, 0); stroke-width: 1px; display: none;"></polygon></g><polyline points="34,9 34,14 19,14 " class="polyline" name="polyline" style="stroke: rgb(0, 0, 255); fill: none; stroke-width: 1px;"></polyline><polyline points="19,34 34,34 34,39 " class="polyline" name="polyline" style="stroke: rgb(0, 0, 255); fill: none; stroke-width: 1px;"></polyline><polyline points="19,9 19,39 " class="polyline" name="polyline" style="stroke: rgb(0, 0, 255); fill: none; stroke-width: 1px;"></polyline><polyline points="31,31 25,34 31,37 " class="polyline" name="polyline" style="stroke: rgb(0, 0, 255); fill: none; stroke-width: 1px;"></polyline><polyline points="16,24 8,24 " class="polyline" name="polyline" style="stroke: rgb(0, 0, 255); fill: none; stroke-width: 1px;"></polyline><polyline points="16,18 16,30 " class="polyline" name="polyline" style="stroke: rgb(0, 0, 255); fill: none; stroke-width: 1px;"></polyline></svg>