<svg xmlns="http://www.w3.org/2000/svg" xmlns:xlink="http://www.w3.org/1999/xlink"    viewBox="0 0  39 59 " width="58.5" height="88.5"><g width="180" top="235" left="7" height="100" version="0.0.1" zoom="14.79999999999998" reference="V" description="{&quot;webPage&quot;:&quot;&quot;,&quot;info&quot;:&quot;&quot;}" modelname="DC Voltage" symbolname="Square Voltage" type="null" model="standard"></g><g points="19,4 19,14 " class="polyline" name="pin" type="simple"><polyline points="19,4 19,14 " style="stroke: rgb(255, 0, 0); stroke-width: 1px;"></polyline><rect width="6" height="6" class="pin" x="16" y="1" style="stroke: rgb(0, 255, 0); fill: none; stroke-width: 1px;"></rect><text r="0" x="17" y="16" transform="rotate(90 17 16)" style="font-size: 12px; font-family: &quot;Times New Roman&quot;; display: none; fill: rgb(0, 0, 0);">p</text><text r="0" x="19" y="4" transform="rotate(0 19 4)" style="font-size: 12px; font-family: &quot;Times New Roman&quot;; display: none;">+</text><ellipse cx="19" cy="12.5" rx="1.5" ry="1.5" style="stroke: rgb(255, 0, 0); fill: rgb(255, 0, 0); stroke-width: 1px; display: none;"></ellipse><polygon points="17.5,14 20.5,14 19,15.5 " style="stroke: rgb(255, 0, 0); fill: rgb(255, 0, 0); stroke-width: 1px; display: none;"></polygon></g><g points="19,54 19,44 " class="polyline" name="pin" type="simple"><polyline points="19,54 19,44 " style="stroke: rgb(255, 0, 0); stroke-width: 1px;"></polyline><rect width="6" height="6" class="pin" x="16" y="51" style="stroke: rgb(0, 255, 0); fill: none; stroke-width: 1px;"></rect><text r="0" x="17" y="42" transform="rotate(90 17 42)" style="font-size: 12px; font-family: &quot;Times New Roman&quot;; display: none; fill: rgb(0, 0, 0);">n</text><text r="0" x="19" y="54" transform="rotate(0 19 54)" style="font-size: 12px; font-family: &quot;Times New Roman&quot;; display: none;">-</text><ellipse cx="19" cy="45.5" rx="1.5" ry="1.5" style="stroke: rgb(255, 0, 0); fill: rgb(255, 0, 0); stroke-width: 1px; display: none;"></ellipse><polygon points="17.5,44 20.5,44 19,42.5 " style="stroke: rgb(255, 0, 0); fill: rgb(255, 0, 0); stroke-width: 1px; display: none;"></polygon></g><ellipse class="draggable" name="ellipse" cx="19" cy="29" rx="15" ry="15" style="stroke: rgb(0, 0, 255); fill: rgb(255, 255, 127); stroke-width: 1px;"></ellipse><polyline points="21,18 17,18 " class="polyline" name="polyline" style="stroke: rgb(0, 0, 255); fill: none; stroke-width: 1px;"></polyline><polyline points="19,20 19,16 " class="polyline" name="polyline" style="stroke: rgb(0, 0, 255); fill: none; stroke-width: 1px;"></polyline><polyline points="13,36 13,25 19,25 19,36 25,36 25,25 " class="polyline" name="polyline" style="stroke: rgb(0, 0, 255); fill: none; stroke-width: 1px;"></polyline></svg>