<svg xmlns="http://www.w3.org/2000/svg" xmlns:xlink="http://www.w3.org/1999/xlink"    viewBox="0 0  59 35 " width="88.5" height="52.5"><g width="350" top="0" left="0" height="350" version="0.0.1" zoom="7.200000000000001" reference="X" description="The Exclusive-NOR (XNRO) Gate function is a digital logic gate that is the reverse or complementary form of the Exclusive-OR function." symbolname="XNOR"></g><g points="54,17 44,17 " class="polyline" name="pin" type="dot"><polyline points="54,17 44,17 " style="stroke: rgb(255, 0, 0); stroke-width: 1px;"></polyline><rect width="6" height="6" class="pin" x="51" y="14" style="stroke: rgb(0, 255, 0); fill: none; stroke-width: 1px;"></rect><text r="0" x="44" y="19" transform="rotate(0 44 19)" style="font-size: 12px; font-family: &quot;Times New Roman&quot;; display: none;">o</text><text r="0" x="54" y="17" transform="rotate(0 54 17)" style="font-size: 12px; font-family: &quot;Times New Roman&quot;; display: none;">+</text><ellipse cx="45.5" cy="17" rx="1.5" ry="1.5" style="stroke: rgb(255, 0, 0); fill: rgb(255, 0, 0); stroke-width: 1px; display: block;"></ellipse><polygon points="44,15.5 44,18.5 42.5,17 " style="stroke: rgb(255, 0, 0); fill: rgb(255, 0, 0); stroke-width: 1px; display: none;"></polygon></g><g points="14,7 24,7 " class="polyline" name="pin" type="simple"><polyline points="14,7 24,7 " style="stroke: rgb(255, 0, 0); stroke-width: 1px;"></polyline><rect width="6" height="6" class="pin" x="11" y="4" style="stroke: rgb(0, 255, 0); fill: none; stroke-width: 1px;"></rect><text r="0" x="26" y="9" transform="rotate(0 26 9)" style="font-size: 12px; font-family: &quot;Times New Roman&quot;; display: none;">I1</text><text r="0" x="14" y="7" transform="rotate(0 14 7)" style="font-size: 12px; font-family: &quot;Times New Roman&quot;; display: none;"> </text><ellipse cx="22.5" cy="7" rx="1.5" ry="1.5" style="stroke: rgb(255, 0, 0); fill: rgb(255, 0, 0); stroke-width: 1px; display: none;"></ellipse><polygon points="24,5.5 24,8.5 25.5,7 " style="stroke: rgb(255, 0, 0); fill: rgb(255, 0, 0); stroke-width: 1px; display: none;"></polygon></g><g points="14,27 24,27 " class="polyline" name="pin" type="simple"><polyline points="14,27 24,27 " style="stroke: rgb(255, 0, 0); stroke-width: 1px;"></polyline><rect width="6" height="6" class="pin" x="11" y="24" style="stroke: rgb(0, 255, 0); fill: none; stroke-width: 1px;"></rect><text r="0" x="26" y="29" transform="rotate(0 26 29)" style="font-size: 12px; font-family: &quot;Times New Roman&quot;; display: none;">I2</text><text r="0" x="14" y="27" transform="rotate(0 14 27)" style="font-size: 12px; font-family: &quot;Times New Roman&quot;; display: none;"> </text><ellipse cx="22.5" cy="27" rx="1.5" ry="1.5" style="stroke: rgb(255, 0, 0); fill: rgb(255, 0, 0); stroke-width: 1px; display: none;"></ellipse><polygon points="24,25.5 24,28.5 25.5,27 " style="stroke: rgb(255, 0, 0); fill: rgb(255, 0, 0); stroke-width: 1px; display: none;"></polygon></g><path class="arc" name="arc" d="M 43.44256246728084 16.041293763940786 A 19.5 12.5 0 0 1 24.217572500119267 29.499221905552517" cx="24" cy="17" rx="19.5" ry="12.5" startangle="6.206413415909808" deltaangle="3.141592653589793" endangle="1.636410422439865" style="stroke: rgb(0, 0, 255); fill: none; stroke-width: 1px;"></path><path class="arc" name="arc" d="M 23.048697011691 3.514148278444532 A 20 12.5 0 0 1 43.99433347488272 16.297534724328614" cx="24" cy="16" rx="20" ry="12.5" startangle="4.664805877107706" deltaangle="3.141592653589793" endangle="1.6421844562569508" style="stroke: rgb(0, 0, 255); fill: none; stroke-width: 1px;"></path><path class="arc" name="arc" d="M 18.96838302813382 4.085683833675295 A 9 13 0 1 1 18.968383028133825 29.914316166324703" cx="20" cy="17" rx="9" ry="13" startangle="4.59751237496779" deltaangle="3.141592653589793" endangle="3.371345864423592" style="stroke: rgb(0, 0, 255); fill: none; stroke-width: 1px;"></path><polyline points="26,7 22,7 " class="polyline" name="polyline" style="stroke: rgb(0, 0, 255); fill: none; stroke-width: 1px;"></polyline><polyline points="23,27 26,27 " class="polyline" name="polyline" style="stroke: rgb(0, 0, 255); fill: none; stroke-width: 1px;"></polyline><path class="arc" name="arc" d="M 22.96838302813382 4.085683833675295 A 9 13 0 1 1 22.968383028133825 29.914316166324703" cx="24" cy="17" rx="9" ry="13" startangle="4.59751237496779" deltaangle="3.141592653589793" endangle="3.371345864423592" style="stroke: rgb(0, 0, 255); fill: none; stroke-width: 1px;"></path></svg>